<?xml version="1.0" standalone="no"?>
<!DOCTYPE svg PUBLIC "-//W3C//DTD SVG 20010904//EN"
 "http://www.w3.org/TR/2001/REC-SVG-20010904/DTD/svg10.dtd">
<svg version="1.0" xmlns="http://www.w3.org/2000/svg"
 width="250" height="250" viewBox="0 0 920.000000 306.000000"
 preserveAspectRatio="xMidYMid meet">

<g transform="translate(0.000000,306.000000) scale(0.100000,-0.100000)"
fill="#000000" stroke="none">
<path d="M870 2810 l0 -150 205 0 205 0 0 150 0 150 -205 0 -205 0 0 -150z"/>
<path d="M7671 2869 c-62 -5 -116 -11 -119 -14 -3 -3 -10 -87 -16 -188 l-11
-182 -118 -3 -118 -3 3 -132 3 -132 110 -5 110 -5 1 -385 c1 -421 7 -472 61
-573 74 -136 242 -193 490 -167 176 18 163 5 163 162 0 73 -4 138 -8 144 -5 7
-31 7 -88 1 -131 -16 -193 15 -214 109 -5 21 -10 191 -10 376 l0 337 143 3
142 3 3 133 3 132 -146 0 -145 0 0 200 0 200 -62 -1 c-35 -1 -114 -6 -177 -10z"/>
<path d="M2089 2510 c-90 -10 -183 -40 -259 -83 -70 -39 -197 -166 -233 -234
-124 -232 -126 -552 -5 -785 81 -157 236 -278 408 -319 79 -19 260 -16 340 5
153 41 290 146 358 273 32 60 77 211 67 222 -5 4 -293 40 -332 41 -6 0 -16
-23 -22 -50 -35 -161 -141 -248 -270 -222 -70 15 -110 47 -150 121 -74 139
-83 426 -19 599 48 131 172 194 283 143 69 -31 126 -118 141 -212 4 -22 10
-41 14 -44 8 -5 348 29 353 36 10 11 -26 140 -56 203 -109 228 -330 337 -618
306z"/>
<path d="M3560 2513 c-92 -7 -198 -36 -280 -76 -68 -33 -102 -58 -171 -127
-133 -133 -194 -273 -206 -475 -21 -368 182 -661 512 -741 98 -24 286 -24 390
0 205 47 351 158 436 332 42 86 46 104 27 104 -7 0 -89 7 -183 15 -93 8 -173
15 -177 15 -4 0 -16 -19 -26 -42 -28 -64 -66 -104 -127 -134 -103 -50 -250
-30 -328 44 -54 51 -97 163 -97 255 l0 47 481 0 482 0 -6 118 c-12 255 -111
454 -280 563 -120 77 -286 115 -447 102z m178 -290 c78 -37 117 -103 137 -230
l7 -43 -277 0 -276 0 6 38 c17 99 56 177 111 218 76 58 193 65 292 17z"/>
<path d="M5032 2509 c-228 -27 -400 -143 -501 -338 -120 -231 -113 -576 16
-789 48 -78 131 -164 206 -213 186 -121 488 -127 681 -14 142 83 243 231 271
397 7 45 18 41 -183 63 -174 18 -162 19 -162 -3 0 -10 -10 -47 -21 -82 -52
-153 -195 -220 -318 -149 -105 61 -161 241 -148 475 13 228 84 358 207 379
127 21 218 -58 260 -228 7 -26 17 -47 24 -47 42 2 338 38 342 42 8 8 -22 127
-46 182 -48 113 -148 220 -256 274 -90 46 -242 66 -372 51z"/>
<path d="M6434 2510 c-225 -19 -412 -113 -490 -246 -29 -49 -67 -144 -61 -151
7 -6 351 -44 363 -39 6 2 14 19 18 36 9 50 80 115 145 134 70 20 174 21 234 0
80 -27 127 -109 127 -219 l0 -35 -69 0 c-314 0 -613 -85 -743 -212 -125 -122
-153 -326 -65 -491 71 -135 218 -207 422 -207 111 0 180 15 263 57 56 28 167
131 177 164 12 37 25 18 25 -36 0 -29 5 -77 11 -105 l11 -50 198 0 198 0 -16
43 c-13 35 -17 119 -23 507 -7 500 -9 522 -64 630 -33 65 -122 144 -193 170
-121 46 -296 64 -468 50z m334 -833 c-6 -113 -24 -169 -77 -236 -90 -113 -289
-135 -382 -42 -100 99 -35 270 126 330 72 27 191 49 274 50 l64 1 -5 -103z"/>
<path d="M870 1795 l0 -685 205 0 205 0 0 685 0 685 -205 0 -205 0 0 -685z"/>
<path d="M3900 998 c-3 -3 -140 -8 -305 -12 -165 -4 -309 -9 -320 -11 -11 -2
-92 -6 -180 -10 -697 -25 -1836 -134 -2615 -250 -406 -61 -499 -83 -182 -45
1563 192 3518 282 5172 240 374 -9 428 -11 865 -30 790 -34 1784 -116 2389
-196 106 -14 152 -17 131 -8 -14 5 -453 68 -720 103 -704 92 -1490 161 -2175
191 -135 6 -274 13 -310 15 -92 7 -1744 18 -1750 13z"/>
<path d="M2265 701 c-53 -19 -70 -45 -36 -56 20 -6 21 -13 21 -199 l0 -192
-25 -22 c-14 -13 -23 -27 -20 -32 3 -6 44 -10 91 -10 76 0 84 2 84 19 0 10 -7
21 -15 25 -12 4 -15 27 -15 120 l0 114 30 7 c40 9 67 -1 74 -28 3 -12 6 -59 6
-104 0 -70 -3 -86 -20 -103 -40 -40 -28 -50 65 -50 77 0 85 2 85 19 0 10 -6
21 -14 24 -10 4 -16 38 -21 133 -7 115 -10 130 -31 151 -27 27 -77 30 -131 8
-19 -8 -37 -15 -39 -15 -2 0 -4 47 -4 105 0 119 3 117 -85 86z"/>
<path d="M6355 701 c-53 -19 -70 -45 -35 -56 20 -6 20 -12 18 -203 -3 -194 -3
-197 -26 -207 -12 -5 -21 -17 -20 -25 3 -12 23 -16 96 -18 86 -3 92 -1 92 17
0 11 -9 22 -20 26 -19 6 -20 15 -20 246 0 271 7 252 -85 220z"/>
<path d="M8888 663 c6 -2 18 -2 25 0 6 3 1 5 -13 5 -14 0 -19 -2 -12 -5z"/>
<path d="M53 643 c9 -2 23 -2 30 0 6 3 -1 5 -18 5 -16 0 -22 -2 -12 -5z"/>
<path d="M2008 584 c-60 -58 -72 -84 -39 -84 18 0 20 -10 23 -134 4 -157 12
-176 82 -176 64 0 86 9 86 36 0 18 -6 23 -32 26 l-33 3 -3 124 -3 123 36 -4
c29 -3 35 -1 35 14 0 14 -8 18 -34 18 -35 0 -35 0 -38 52 -2 28 -7 53 -13 54
-5 2 -36 -21 -67 -52z"/>
<path d="M5737 587 c-60 -54 -71 -81 -37 -90 19 -5 20 -14 20 -129 0 -149 9
-172 65 -176 21 -2 54 -1 72 3 27 5 33 11 33 30 0 21 -5 25 -29 25 -46 0 -52
17 -49 136 l3 109 38 3 c23 2 37 8 37 17 0 9 -14 15 -37 17 l-38 3 -3 53 c-2
28 -6 52 -10 52 -4 -1 -33 -24 -65 -53z"/>
<path d="M2734 521 c-58 -27 -87 -78 -88 -155 -2 -147 126 -223 246 -147 54
35 64 47 48 66 -9 11 -16 11 -45 -1 -19 -8 -48 -14 -65 -14 -43 0 -90 47 -90
89 l0 31 106 0 106 0 -7 33 c-21 99 -113 142 -211 98z m99 -38 c8 -10 17 -27
19 -38 3 -18 -3 -20 -54 -23 -51 -3 -58 -1 -58 15 0 52 60 82 93 46z"/>
<path d="M3270 517 c-53 -28 -90 -90 -90 -151 0 -55 36 -125 80 -154 30 -20
45 -23 102 -20 80 4 113 24 146 88 61 121 -21 260 -153 260 -24 0 -60 -10 -85
-23z m110 -27 c26 -14 40 -63 40 -144 0 -89 -17 -119 -63 -114 -49 5 -69 52
-65 154 4 105 29 135 88 104z"/>
<path d="M3616 521 c-58 -20 -68 -36 -32 -52 l26 -12 0 -156 c0 -175 -4 -198
-32 -207 -11 -3 -18 -13 -16 -22 3 -14 18 -16 98 -15 74 2 96 5 98 16 2 9 -8
17 -22 21 -23 6 -26 11 -26 54 l0 47 58 0 c68 0 112 26 142 85 25 48 27 148 5
191 -34 64 -120 87 -182 49 -33 -20 -33 -20 -33 0 0 24 -18 25 -84 1z m176
-62 c43 -23 61 -119 34 -184 -17 -39 -54 -54 -92 -36 -23 10 -24 14 -24 115 0
74 4 106 13 109 21 9 48 7 69 -4z"/>
<path d="M4090 529 c-63 -25 -100 -85 -100 -162 0 -167 170 -237 284 -118 23
24 25 30 12 40 -12 10 -21 9 -45 -3 -63 -33 -128 -12 -152 51 -19 52 -17 53
96 53 102 0 105 1 105 23 0 37 -34 89 -71 109 -37 20 -90 22 -129 7z m90 -49
c11 -11 20 -29 20 -40 0 -18 -7 -20 -60 -20 -63 0 -68 5 -49 43 23 42 57 49
89 17z"/>
<path d="M4396 521 c-58 -20 -68 -36 -32 -52 25 -12 26 -15 26 -106 0 -98 -10
-133 -36 -133 -9 0 -14 -7 -12 -17 3 -15 17 -18 91 -21 80 -3 87 -1 87 17 0
10 -7 21 -15 25 -12 4 -15 27 -15 120 l0 114 30 7 c16 4 39 4 50 0 19 -6 20
-15 20 -121 0 -93 -3 -116 -15 -120 -8 -4 -15 -15 -15 -25 0 -17 8 -19 85 -19
93 0 105 10 65 50 -18 18 -20 33 -20 135 0 110 -1 117 -25 140 -30 31 -82 33
-142 5 -43 -19 -43 -19 -43 0 0 24 -18 24 -84 1z"/>
<path d="M5065 526 c-64 -28 -96 -87 -96 -174 0 -138 134 -208 254 -132 49 31
54 39 36 57 -8 8 -18 7 -37 -3 -84 -43 -162 21 -162 133 0 36 6 55 20 71 33
35 62 26 90 -28 22 -42 43 -55 70 -40 28 15 34 47 15 76 -32 49 -126 69 -190
40z"/>
<path d="M5400 529 c-56 -23 -80 -80 -46 -109 25 -20 72 9 68 42 -3 35 24 52
59 35 20 -11 24 -20 24 -57 0 -43 -1 -44 -41 -56 -132 -38 -181 -108 -119
-169 29 -30 93 -34 139 -10 26 14 31 14 47 -1 24 -22 65 -21 89 1 23 21 27 57
6 49 -19 -7 -26 26 -26 134 0 51 -4 102 -10 112 -19 36 -130 53 -190 29z m110
-218 c0 -21 -6 -44 -14 -50 -20 -17 -67 -10 -80 12 -9 15 -5 23 22 48 18 16
41 29 52 29 17 0 20 -7 20 -39z"/>
<path d="M6003 526 c-48 -22 -66 -65 -40 -99 10 -15 17 -16 45 -6 29 10 33 15
30 41 -3 35 22 51 60 37 19 -7 22 -16 22 -57 0 -48 -1 -50 -32 -56 -62 -12
-135 -55 -148 -86 -16 -38 0 -82 36 -99 36 -16 96 -14 122 5 21 14 25 14 40 1
40 -36 102 -20 116 30 6 18 3 20 -13 16 -18 -5 -19 2 -23 116 -4 152 -12 164
-115 168 -44 2 -79 -2 -100 -11z m117 -221 c0 -39 -3 -45 -24 -51 -41 -10 -61
-1 -64 28 -3 22 3 32 30 48 49 30 58 26 58 -25z"/>
<path d="M6614 521 c-65 -30 -89 -72 -89 -158 0 -80 15 -110 75 -150 43 -30
125 -31 179 -3 69 35 103 119 81 201 -29 108 -141 158 -246 110z m103 -29 c40
-25 58 -175 28 -232 -18 -35 -62 -41 -88 -12 -35 39 -42 183 -11 230 14 22 48
29 71 14z"/>
<path d="M6982 523 c-63 -31 -78 -96 -37 -157 l24 -36 -24 -24 c-29 -29 -31
-52 -10 -83 14 -20 13 -24 -10 -47 -14 -14 -25 -32 -25 -41 0 -53 53 -79 160
-80 93 0 146 24 173 78 37 75 -9 137 -103 137 -80 0 -120 11 -120 31 0 16 8
19 50 19 28 0 64 7 80 15 35 18 62 66 58 103 -3 22 1 27 22 27 19 0 26 6 28
25 3 25 1 26 -90 38 -118 16 -136 15 -176 -5z m110 -40 c40 -36 10 -131 -39
-121 -24 5 -45 47 -38 82 10 55 42 71 77 39z m72 -325 c18 -29 -14 -51 -82
-56 -74 -5 -102 8 -102 49 l0 30 86 -3 c69 -2 89 -6 98 -20z"/>
</g>
</svg>